<svg version="1" xmlns="http://www.w3.org/2000/svg" width="1984" height="1984" viewBox="0 0 1488.000000 1488.000000"><path d="M1 744.5V1488h1487V1H1v743.5zM326 338v122h-26.5c-26.3 0-26.5 0-26.5-2.1 0-1.6-.4-1.9-1.7-1.4-15.9 6.7-35 9.1-51.3 6.4-44-7-71.3-45.6-71.3-100.4 0-50.5 20.3-84.5 58.1-97.6 12.3-4.3 18.2-5.1 42.5-5.6l23.7-.5V216h53v122zm531-100.5V259h62v47h-2.5c-1.3 0-9.1-.4-17.2-1-8.2-.5-21-1.1-28.6-1.4l-13.8-.4.3 49.1c.3 48.5.3 49.3 2.5 53.3 4.6 8.6 15.8 10.3 40.3 6 8-1.4 15.5-2.8 16.8-3.2l2.2-.6V456l-2.6 1c-1.4.6-8.3 2.2-15.3 3.7-10.9 2.3-15.1 2.7-30.6 2.7-14.5.1-19.3-.3-24.5-1.7-21.5-6-32.9-17.8-39.2-40.2l-2.3-8-.3-98.8-.3-98.7H857v21.5zm-381 17.6c10.1 1.6 23.8 6.6 31.7 11.5 10.6 6.6 21.3 18.5 26.8 29.8 8.1 16.8 10.5 30.2 10.5 59.3V374H416.2l.9 3.9c3.8 17.1 13.6 29.6 27.6 35.2 5.3 2.2 7.2 2.4 24.3 2.4 14.1 0 20.5-.4 27-1.8 11.9-2.5 27.3-7.8 36.9-12.6 4.4-2.3 8.3-4.1 8.6-4.1.3 0 .5 11 .5 24.5V446l-3.8 1.9c-6.5 3.3-23.5 8.8-35.5 11.5-46.7 10.5-89.2 1.8-114.6-23.6-14.8-14.7-23.6-33.5-27.2-57.9-1.5-10.3-.7-32.6 1.6-43.4 6.6-31.7 22.7-55.9 46-69 6.9-3.9 21.7-9.1 29.6-10.4 7.7-1.2 30.2-1.3 37.9 0zm233.5 1.9c24.8 6.3 39.2 20.8 46.3 46.9l2.6 9.6.4 73.2.3 73.3h-54l-.3-68.3c-.4-77.2-.1-74-8.4-82.3-5.4-5.4-12.4-7.6-24.3-7.7-10 0-18.4 1.6-25.8 4.9l-5.3 2.3-.2 75.3-.3 75.3-26.7.3-26.8.2V259h26.4c26.1 0 26.4 0 26.9 2.1.4 1.6 1 2 2.4 1.4 4.6-1.8 18.6-5.6 25.8-7 10.7-2 30.2-1.3 41 1.5zm361.3-.5c10.4 2 24 6.4 33.7 10.9l7.5 3.5v24c0 13.3-.2 24.1-.5 24.1s-6.4-2-13.7-4.4c-15.4-5.1-30.8-9-42.6-10.7-10.4-1.4-27.1-.7-33.4 1.6-8.3 2.9-12 9.9-8.2 15.3 3.3 4.7 13 8 38.9 13.1 29.3 5.8 41.3 10.8 52.6 22.1 11.3 11.2 15.9 22.5 15.9 38.8 0 32.5-18.7 55.7-52.1 64.7-31.8 8.5-69.5 4.9-101.1-9.6l-6.8-3.2v-24.8c0-13.7.2-24.9.5-24.9.2 0 3.8 1.3 7.8 2.9 9.4 3.8 25.4 8.4 38.7 11.2 8.5 1.8 13.8 2.3 28 2.3 16.1.1 17.8-.1 21.5-2 5.9-3.2 8-5.9 8-10.6 0-3.3-.7-4.6-3.7-7.3-4.3-3.9-10.7-6-32.3-10.5-29.2-6-44.6-12.4-56.4-23.5C962 349 958 339.1 958 322c0-11.2 1.7-18.6 6.6-28.9 4.8-10.2 16.7-22 27.9-27.9 8.9-4.5 22.4-8.8 32.5-10.2 9.4-1.3 36-.5 45.8 1.5zm139.2 66.7c0 41.9.4 66.3 1.1 70.4 1.7 9.6 6.1 16.2 13.3 19.9 5.7 2.9 6.5 3 19 3 13.2 0 15.7-.4 25.9-4.7l4.7-2V259h54v201h-26.5c-25.8 0-26.5-.1-26.5-2 0-2.5-.9-2.5-10 .4-13.1 4.2-22.8 5.7-35.5 5.7-35.3-.1-58.3-13.9-67.6-40.8-5.3-15.3-5.2-13.7-5.6-91.6l-.4-72.7h54.1v64.2zM885.2 668c8.1 1.2 18.5 3.1 23 4.3l8.3 2.2.3 19.8.2 19.7-3.7-1.6c-12.2-5.3-30.7-9.6-49.3-11.5-42.4-4.2-74.8 10.8-84.7 39.3-2.9 8.3-3.4 21.8-1.3 30.9 4.4 19 19.5 32.7 41.4 37.4 6.6 1.5 11.1 1.7 28 1.2 11.1-.4 21.3-.9 22.8-1.3l2.8-.6.2-25.7.3-25.6 24.3-.3 24.2-.2-.2 39.6-.3 39.7-4.5 1.3c-33.6 10.1-84.8 13.6-113.3 7.8-35.9-7.2-61.2-24.1-73.2-48.9-6.8-14.1-8-19.4-8-38 0-13.7.3-17.1 2.3-23.8 10.8-37.5 45.2-61.1 98.2-67.7 12.7-1.5 45.7-.5 62.2 2zm394.3-.5c13.5 1.8 33.3 5.6 41.3 8l5.2 1.6v18c0 16.9-.1 18.1-1.7 17.4-21.5-9.1-51.4-14.1-79.5-13.3-16.2.5-22.7 1.9-28.9 6.1-10.6 7.1-10.7 19.7-.1 25.1 7.5 3.8 15.2 5.4 41.4 8.7 25.5 3.1 40.4 5.8 49.2 8.9 25.5 8.7 37 25 33.6 47.4-3.8 25.6-26.8 43-65.5 49.6-21.8 3.7-64.4 2.3-90.5-3-10.7-2.2-27.5-7.2-32.2-9.6l-2.8-1.5v-19.4c0-10.7.2-19.5.4-19.5.3 0 3.1 1.6 6.3 3.5 15.9 9.4 45.8 16.5 77.1 18.1 27 1.4 44-3.9 48.1-14.9 2.5-6.7.6-11.4-5.9-14.7-6.3-3.2-14-4.8-38-8-26.1-3.5-31.6-4.4-42.5-7.1-17.6-4.5-32-12.3-38.4-21.1-11.6-15.8-10-39.3 3.8-55 12.6-14.3 35.3-23.1 70.1-27.2 7.1-.8 37.8.3 49.5 1.9zm-913 87.5c26.9 47.8 49.1 87.4 49.3 88 .3.7-10.8 1-34 1h-34.4L315 778.6c-17.9-36-32.8-65.5-33.2-65.5-.3-.1-15.8 29.2-34.3 65-18.6 35.8-34.3 65.3-34.9 65.5-.6.2-15.1.3-32.3.2l-31.1-.3 45.6-82c25.2-45.1 47.2-84.6 49-87.8l3.2-5.7h35.3l35.2.1 49 86.9zM657 688v20H543v30h68v33h-68v33h114v40H484V668h173v20zm412 68v88h-59V668h59v88zm-494.8 259.9l3.3 2.9.3 25.6.3 25.6h14c15.8 0 19.8 1.1 22.3 5.9 2 3.9 2 7.6 0 11-3 5.1-4.8 5.6-21.2 5.9l-15.3.4.3 60.1c.3 65.3.2 63.5 5.8 65.6 1.4.5 7.5 1.1 13.5 1.3 11.8.4 14.1 1.2 16.9 5.9 3.2 5.4 1.1 12.6-4.6 15.5-4.3 2.2-23.9 1.4-31.5-1.3-7.3-2.6-13.7-7.4-16.8-12.7-5.4-9.2-5.5-10.2-5.5-74.9V1093h-6.7c-13.1 0-18.3-3.3-18.3-11.6 0-3.4.6-5.1 2.9-7.6 2.9-3.2 3.1-3.3 12.5-3.6l9.6-.4v-50l3.4-3.4c4.6-4.6 10.1-4.8 14.8-.5zm659.4.5l3.4 3.4v137.7l43.5-43.5 43.5-43.5h4.9c3.8 0 5.5.5 7.5 2.4 3.5 3.3 5 8 3.6 11.7-.6 1.6-13.5 15.3-28.7 30.5l-27.5 27.6 26.4 41.4c14.6 22.8 27.1 42.5 27.7 43.8 1.9 3.4.5 8.6-2.9 11.5-3.9 3.3-8 4-12.2 2.3-3-1.2-7-6.9-29.2-41.6-14.2-22-26.1-40.1-26.5-40.1-.3 0-7.3 6.6-15.4 14.8l-14.7 14.7v46.5l-2.9 3.2c-2.6 2.9-3.6 3.3-7.9 3.3-6 0-9.6-2.8-11.2-8.4-1.4-5.1-1.3-208.3.1-213.4 1.3-4.6 5.7-7.7 11.3-7.7 3 0 4.5.7 7.2 3.4zm-981 50.6c12.8 3.2 23.1 8.9 32.7 18 13.1 12.4 19.8 24 23.1 40.2 1.3 6.5 1.6 15.9 1.6 58.3 0 55.5.1 54.9-6 58-3.6 1.9-6.1 1.9-10.6 0-6.4-2.7-6.4-2.6-6.4-58.4 0-53.9-.2-56.5-5.2-66.6-8-16-21.6-25.7-39.8-28.6-23.8-3.7-48.7 12.3-56 35.9-1.9 6-2 9.4-2 56.6 0 30.1-.4 51.5-1 53.7-1.6 5.6-5.2 8.4-11.2 8.4-4.3 0-5.3-.4-7.9-3.3l-2.9-3.2v-159l2.9-3.2c2.6-2.9 3.5-3.3 8.1-3.3 4.5 0 5.5.4 8 3.1 1.6 1.9 3.1 5 3.5 7.4l.7 4.2 2.7-2.5c16.1-14.9 43.2-21.4 65.7-15.7zm192.6-.5c23 4.8 41.9 19.8 53 42 6.4 12.7 11.4 34.9 10.6 46.7-.4 5-.9 6.4-3.6 9.1l-3.2 3.2-66.5.3c-63.5.2-66.5.3-66.5 2.1 0 4.5 4.3 17.9 8.1 25.3 10.1 19.4 28 30.2 49.9 30.1 18.1 0 31.8-5.8 42.7-17.9 4.1-4.6 7.6-7.5 9.3-7.9 6.1-1.3 14 5.1 14 11.5 0 3.7-3.4 8.7-10.9 16-14.8 14.3-32.3 21-55.4 21-38.1 0-65.9-22.1-77.1-61.2-10.5-36.4-1-77.8 23.1-100.9 10.4-10 20.2-15.4 34.2-18.9 9.4-2.3 28.7-2.6 38.3-.5zm544.9 0c14.6 3.1 26.3 9.3 36.6 19.5 12 11.8 19.6 25.9 24.5 45.8 3.2 12.5 3.2 36.9 0 49.4-5.1 20.7-12.8 34.5-26.1 47-14.3 13.5-27.7 18.8-49.6 19.5-16.9.6-27.2-1.4-40.5-7.9-7-3.4-10.2-5.9-18.1-13.8-8.8-8.7-10.2-10.6-15.2-21-9.5-19.6-13.2-39.6-10.9-60 4.5-40.6 27.3-69.7 60.7-77.9 10.1-2.5 28.3-2.7 38.6-.6zm186.9 3.4c1.4 1 3.1 3.6 3.9 5.7 1.2 3.6 1.2 4.4-.4 7.7-2.2 4.7-5.2 6.2-13.9 7.1-13.6 1.3-25.1 6.9-34.2 16.4-5.8 6-12.1 18.8-13.4 27.2-.5 3.7-1 27.1-1 54.2v47.8l-2.9 3.2c-2.6 2.9-3.5 3.3-8.1 3.3s-5.5-.4-8.1-3.3l-2.9-3.2v-159l2.9-3.2c2.6-2.9 3.5-3.3 8.1-3.3s5.5.4 8.1 3.3c2.5 2.7 2.9 4.1 2.9 8.7 0 3 .3 5.5.6 5.5s2.6-1.8 5-3.9c9-7.9 24.6-14.5 38.2-16.1 8-.9 11.9-.4 15.2 1.9zm-518 3.8c1.8 2 7.4 17 19.4 52.3 20.9 61.3 24.7 72.2 25.2 71.7.2-.2 9.4-27.7 20.4-61.2 15.5-47.4 20.6-61.5 22.5-63.5 3.5-3.4 11.3-3.5 15 0 1.9 1.8 6.9 15.7 22.6 62.9 11.1 33.3 20.4 60.9 20.8 61.3.4.4 9.6-25.7 20.6-58 10.9-32.3 20.7-60.4 21.7-62.5 2.6-5.3 7.3-7.5 12.8-5.8 4.5 1.3 8 5.8 8 10.1 0 1.4-11.9 37.1-26.5 79.5-19.2 55.6-27.2 77.6-28.9 79.3-5.1 5.1-14.9 3.5-17.8-3-.9-1.8-10.3-29.9-20.9-62.5-10.7-32.5-19.7-58.9-20-58.5-.3.4-9.7 28.3-20.8 62-19.5 59.1-20.3 61.4-23.4 63.2-4.1 2.5-8.3 2.5-12.4 0-1.8-1.1-3.3-2.1-3.3-2.3 0-.2-11.9-34.9-26.5-77.2-14.6-42.2-26.5-78.3-26.5-80.1 0-1.8.5-4.4 1.1-5.7 2.8-6.2 12.2-7.3 16.9-2z"/><path d="M246.4 303c-12 1-18.8 3.1-26.1 7.9-9.3 6.3-15.9 17.1-18.8 30.8-1.9 8.9-1.9 31.7 0 40.5 4.4 20.8 16.8 32.1 36.6 33.5 9.8.7 19.7-1 28.2-4.9l6.7-3.1V302l-8.7.1c-4.9.1-12.9.5-17.9.9zM443.1 301.5c-9.5 3-18.4 11.3-23.1 21.7-3.8 8.4-6.7 7.8 35 7.8h37l-.6-3.3c-2.1-11.3-10.6-21.8-21-25.6-6.5-2.5-20.3-2.8-27.3-.6zM418 1087.9c-21.4 3-37.9 17.5-45.3 40.1-1.4 4.1-2.8 9.6-3.2 12.2l-.6 4.8H486l-.6-3.3c-3-16.8-8.2-27.5-18.4-37.7-7.8-7.8-14.9-12.1-24.3-14.6-6.5-1.7-18-2.4-24.7-1.5zM963 1088c-23.2 3.6-40 19.5-47.2 44.5-1.9 6.8-2.3 10.3-2.3 23.5 0 18.2 1.2 23.9 8 37.7 7.5 15.2 19.3 25.3 35 29.9 7 2 22.3 2.3 30 .5 15.2-3.7 29-15 36.3-30.1 6.5-13.3 7.7-19 7.7-37.5 0-18.4-1.1-24-7.5-37.4-7.1-14.7-21.5-26.8-36-30-7.1-1.5-18-2-24-1.1z"/></svg>